<?xml version="1.0" standalone="yes"?>
<svg xmlns="http://www.w3.org/2000/svg" width="196" height="516">
<path style="fill:#000000; stroke:none;" d="M2 102L3 103C28.9896 97.96 45.357 86.867 61.9961 66C68.0729 58.3792 72.8996 50.037 78.3588 42C80.2551 39.2082 83.1794 34.3356 87.0008 34.1674C90.7679 34.0016 94.2291 38.4958 96.4097 41.0146C103.417 49.1082 109.826 57.7224 116.614 66C124.704 75.8653 133.891 87.5563 146 92.6366C158.17 97.7426 180.587 92.3575 192 87C190.17 81.1862 183.311 80.2256 178 78.7099C166.065 75.3041 151.764 76.3473 142 67.8148C130.21 57.5126 121.584 44.3301 110.91 33.0038C106.129 27.9301 100.034 24.6319 95.1049 19.8156C89.9388 14.7675 89.8412 4.37396 81.9992 2.4491C71.0684 -0.233948 73.81 9.18338 72.3125 15C71.3165 18.8684 68.2274 22.6038 66.2006 26C55.4313 44.0459 45.5862 63.7246 30.8302 78.9105C22.9641 87.0058 7.02991 92.1616 2 102M91 68.8858C83.6837 70.1998 73.7957 74.1151 67.0054 77.2477C64.576 78.3684 60.9582 80.5398 62.8904 83.7014C64.7822 86.7967 69.8384 87.0085 73 86.6991C82.7649 85.7434 96.7865 85.3105 105.941 82.4275C117.171 78.8913 96.1996 67.952 91 68.8858M115 133C114.175 130.001 111.148 126.835 111.41 123.715C112.467 111.162 124.559 106.892 114.096 94.1481C109.67 88.7577 104.286 92.6952 99 94.2122C89.2804 97.0014 77.0289 98.7857 67 100.055C63.5389 100.493 55.515 95.8305 53.1358 99.6042C50.8476 103.233 58.5401 115.164 59.9468 119C62.6493 126.37 63.4351 137.704 71 141.793C76.2332 144.622 77.5716 138.089 82.044 136.724C92.5158 133.527 104.165 136.435 115 133z"/>
<path style="fill:#ffffff; stroke:none;" d="M72 111C72.2224 121.718 79.6571 133.282 91.4707 124.142C96.1105 120.552 97.7463 112.419 99 107L72 111z"/>
<path style="fill:#000000; stroke:none;" d="M47 213C64.6463 211.194 82.9874 207.936 100 201.576C103.73 200.181 113.751 198.713 115.338 194.646C117.414 189.326 106.429 186.772 103 186.677C93.1551 186.407 80.3109 196.391 72 201C77.5325 192.593 81.0702 185.799 75.5826 176.015C72.7517 170.968 59.6613 163.238 54.608 169.322C49.5864 175.367 61.7224 181.519 60.9869 188C59.9339 197.278 50.8571 204.883 47 213z"/>
<path style="fill:#ffffff; stroke:none;" d="M71 201L72 202L71 201z"/>
<path style="fill:#000000; stroke:none;" d="M99 204.638C90.6648 206.963 71.2832 213.033 65.6227 219.622C59.2337 227.059 79.6652 223.67 82 223.116C90.3745 221.128 107.255 218.337 113.377 212.009C119.209 205.981 102.276 203.724 99 204.638M111 233C116.059 254.247 110.036 284.849 127.093 301.907C137.469 312.282 151.266 313.065 165 312.999C170.592 312.972 177.85 312.836 180.639 306.981C182.674 302.709 179.163 298.036 177.888 294C174.561 283.467 173.171 266.879 167 258C162.958 269.94 163 285.443 163 298C155.235 297.995 145.502 297.504 139.185 292.362C128.257 283.466 125.389 251.936 128.533 239C131.203 228.016 151.838 219.687 134.96 208.604C128.143 204.128 119.167 214.862 113 217.575C98.7495 223.843 84.4568 230.017 70 235.8C65.6223 237.551 55.6309 238.962 52.662 242.559C48.9316 247.08 58.1304 249.523 61 249.801C70.1512 250.687 79.7788 244.863 88 241.601C95.5935 238.588 103.543 236.305 111 233M84 263L83 263C82.2927 259.505 74.1197 249.247 72.4074 257.149C71.0119 263.589 74 273.151 74 280C67.074 280.566 59.5553 282.717 53.0046 285.044C50.8232 285.819 46.6921 287.607 48.7515 290.585C52.7801 296.411 68.256 290.454 74 290C74.215 300.415 75.4268 305.465 63 306C64.1823 310.125 66.7126 312.018 70.0008 314.665C72.0657 316.328 73.9514 318.191 76 319.867C88.8997 330.417 85.4434 303.281 84.7145 297C84.4341 294.584 83.5493 291.645 85.0316 289.434C89.2881 283.085 101.579 288.907 106.338 283.404C109.053 280.265 104.449 277.659 101.995 276.765C95.7316 274.483 90.2394 275.247 84 277L83 269C84.8947 269.936 86.8369 271.134 89.0046 271.256C110.492 272.463 92.3561 240.253 85.7145 257C84.9422 258.948 84.4704 260.968 84 263M72 268C66.0275 267.983 58.3476 262.873 53.0586 264.071C49.461 264.886 48.5585 268.918 50.608 271.671C57.6395 281.119 69.7441 279.659 72 268M98 304C100.305 304.731 102.588 305.528 105.002 305.816C122.25 307.872 107.671 281.039 99.9244 297.996C98.996 300.028 98.4158 301.819 98 304M57 301C52.5173 302.067 45.0876 300.467 41.3218 303.028C34.5242 307.65 49.8556 324.706 55.196 313.941C56.1044 312.11 56.5715 309.991 56.9823 308.002C57.5125 305.433 57.5455 303.525 57 301M108 374C116.658 373.604 135.082 369.443 140.258 361.895C144.804 355.265 137.38 341.667 129.015 343.617C122.909 345.04 124.599 350.647 122.414 355C118.824 362.15 111.68 366.904 108 374M82.1088 359.931C78.106 361.052 77.6148 365.916 79.6073 368.957C82.3562 373.153 92.412 379.395 97.6713 377.356C100.552 376.24 104.798 369.639 102.867 366.603C101.662 364.708 84.4029 359.288 82.1088 359.931M39 387L39 388L36 395C41.0959 395 50.4424 396.29 54.3927 392.262C61.8282 384.68 40.972 370.122 35.0193 368.876C24.1207 366.594 36.1106 384.769 39 387M101 394L95 410L103 407C97.3177 418.203 119.227 413.119 125 413L127 464L99 467L98 452C101.334 452 104.683 452.106 108 451.715C111.545 451.296 117.68 451.987 120.681 449.972C125.445 446.775 120.6 442.426 116.995 441.533C111.746 440.233 103.762 444.159 99.3179 441.802C96.8749 440.506 97.0762 437.341 97 435C102.399 434.574 118.041 435.894 121.168 430.69C123.219 427.277 118.657 424.622 115.996 423.808C109.751 421.897 103.013 425.609 97 427C97.2213 421.846 98.8231 417.292 94.8519 413.109C92.9193 411.073 87.3771 407.141 85.392 411.322C83.8912 414.482 86.9936 422.194 87 426C87.0221 439.225 81.4683 467.78 94.0934 476.396C100.689 480.897 112.489 474.495 119.999 475.062C126.301 475.538 130.365 485.468 136.941 481.242C145.746 475.585 140.635 450.938 140.025 442C139.731 437.704 138.57 433.272 139.53 429C140.589 424.288 144.299 420.014 143.732 415C141.413 394.47 117.282 404.44 105 406L105 405C112.223 402.853 115.162 398.333 113 391C122.063 390.285 130.956 388.077 140 387.169C144.222 386.745 150.101 387.25 153.808 384.825C161.983 379.477 142.358 371.866 138 372.365C121.676 374.232 104.873 380.923 89 385.116C84.926 386.192 74.2537 387.218 72.1759 391.375C70.508 394.712 75.8057 396.104 78.0008 396.532C85.5206 397.997 93.637 395.428 101 394M35 435C34.55 438.561 33.4061 442.499 34.7431 445.996C36.4089 450.353 40.8181 451.69 43.3966 455.209C46.7429 459.776 46.6539 475.542 41.8519 478.995C35.9082 483.268 27.5234 481.999 21.0586 484.879C16.8995 486.732 16.2853 491.433 19.4336 494.682C22.9709 498.333 28.7306 496.309 33 495.35C42.8009 493.148 52.9522 492.197 63 493.17C88.6156 495.649 111.744 511.082 137 513.826C146.462 514.855 153.96 512.447 163 510.754C170.156 509.414 189.393 507.4 192.824 499.846C194.359 496.466 190.088 496.386 187.995 496.599C179.095 497.506 170.954 498.345 162 497.285C135.888 494.194 110.993 491.817 85 486.803C79.2849 485.701 62.3606 485.687 59.0278 480.682C54.3085 473.595 59.7564 460.168 57.196 452C55.7795 447.481 50.306 443.97 51.0525 439C52.2487 431.036 65.6601 416.755 56.8519 409.966C45.5078 401.222 34.6627 414.834 25 420.548C22.1036 422.261 14.6809 424.244 14.0602 428.089C13.3281 432.624 22.6982 435.393 26 435.748C28.9568 436.066 32.0514 435.233 35 435z"/>
<path style="fill:#ffffff; stroke:none;" d="M103.667 406.333L104.333 406.667L103.667 406.333z"/>
</svg>
